<?xml version="1.0" encoding="utf-8"?>
<!-- Generator: Adobe Illustrator 25.2.0, SVG Export Plug-In . SVG Version: 6.00 Build 0)  -->
<svg version="1.1" id="Layer_1" xmlns="http://www.w3.org/2000/svg" xmlns:xlink="http://www.w3.org/1999/xlink" x="0px" y="0px"
	 viewBox="0 0 500 500" style="enable-background:new 0 0 500 500;" xml:space="preserve">
<style type="text/css">
	.st0{fill:#FFFFFF;}
</style>
<path class="st0" d="M5,381.3c1.2-5.7,2.2-11.5,3.7-17.2C13.2,347,21.6,332,34,319.4c25.2-25.4,50.2-51.1,76-75.9
	c29.8-28.6,65.1-36.7,104.9-25.1c0.6,0.2,1.2,0.4,1.8,0.5c0.3,0.1,0.6-0.1,1.4-0.2c-0.8-3-1.7-6-2.4-9c-8.6-36.6-0.7-69.5,25.1-96.8
	c25.7-27.2,52-53.8,79.4-79.3C349.6,6.3,385-1.2,423.1,11.4c38.1,12.6,61.6,39.8,69.1,79.3c6.8,35.6-3.5,66.8-28.9,92.6
	c-24,24.4-48.1,48.7-72.6,72.6c-30.3,29.6-66,38.4-106.7,26.5c-0.6-0.2-1.2-0.3-1.8-0.5c-0.1,0-0.3,0-0.9,0.1
	c1.3,5.7,2.9,11.2,3.8,16.9c5.7,35.1-3.8,65.7-28.5,91c-24.8,25.6-50.2,50.6-75.6,75.6c-16.5,16.3-36.5,25.7-59.6,28.5
	c-0.9,0.1-1.8,0.5-2.7,0.8c-6.7,0-13.4,0-20.1,0c-0.9-0.3-1.7-0.7-2.7-0.8c-42.6-5.3-77-35.5-87.7-77C6.9,412,6.1,406.6,5,401.4
	C5,394.7,5,388,5,381.3z M237.5,215.1c7.8-7.9,15.1-15.1,22.1-22.4c1.1-1.1,1.4-3.4,1.3-5.2c-0.9-17.3,5-31.8,17.2-43.9
	c9.3-9.2,18.5-18.5,27.7-27.7c15.5-15.5,30.8-31.3,46.7-46.5c29.4-28,78-15.8,90.4,22.8c8.6,26.8-2,48-21.1,64.1
	c-3.8,3.2-9.2,2.6-12.6-0.8c-3.4-3.5-3.8-8.7-0.5-12.6c2.7-3.3,6-6.1,8.9-9.4c8.1-9.3,10.8-20.2,8.1-32
	C419.4,74,386.2,64,365.5,83.3c-0.6,0.5-1.2,1.1-1.7,1.7c-24.2,24.2-48.4,48.4-72.6,72.6c-5.1,5.1-8.8,10.9-10.4,18.9
	c13.6-3.4,25.1-0.9,34.6,8.6c9.4,9.4,11.3,21.1,8.5,34.2c7.2-1.5,12.6-4.6,17.3-9c2.7-2.5,5.1-5.3,7.9-7.6c3.8-3.1,9.2-2.7,12.6,0.7
	c3.2,3.3,3.9,8.6,0.9,12.2c-10.9,13-24,23.2-41.6,23.2c-10.1,0-16.7,3.4-22.7,10.6c-3.1,3.8-6.9,7-10.4,10.5
	c-0.8,0.8-1.5,1.8-2.3,2.9c1.2,0.5,1.9,0.9,2.6,1.1c31.8,10.1,60.9,4.8,85.2-18c27-25.4,53.1-51.8,78.8-78.6
	c19.5-20.4,26.7-45.5,21.2-73.2c-6.4-32.7-26-55.1-57.8-65c-32.2-10-61.1-2.4-85.3,21.1c-24.6,24-49,48.3-72.8,73
	c-7.1,7.3-13.3,16-17.8,25.1C229.2,169.6,228.9,191.8,237.5,215.1z M261.6,286c-7.3,7.3-14.2,14.1-20.9,21.1
	c-1.4,1.5-2.5,4.1-2.4,6.1c0.9,17.6-5.3,32.3-17.8,44.6c-10.1,9.9-20,20-30.1,30c-15,14.9-29.7,30.2-45.1,44.7
	c-13,12.2-29.1,16.3-46.5,13c-21.5-4-36.3-16.9-42.8-37.7c-6.6-21.4-1.5-40.6,14.4-56.6c23.8-23.9,47.8-47.7,71.6-71.7
	c12.5-12.6,27.2-18.9,45.1-17.9c1.5,0.1,3.5-0.1,4.4-1c7.5-7.2,14.9-14.7,22.7-22.5c-2.5-0.9-4.3-1.7-6.1-2.2
	c-31.2-8.7-59.4-2.8-82.8,19.4c-26.7,25.3-52.7,51.4-78,78c-21.9,23-28.3,50.9-19.5,81.4c17.9,62.3,95.2,81.4,141.8,35.2
	c23.8-23.5,47.2-47.4,71-70.9c15.7-15.5,25-33.9,26.9-55.9C268.4,310.8,266.5,298.5,261.6,286z M175.5,281.7
	c-7.2,1.4-12.7,4.4-17.3,9c-25.3,25.2-50.6,50.2-75.6,75.6c-14,14.2-13.4,36.8,0.5,50.7c14,13.9,36.3,14.1,50.8,0.3
	c3.8-3.6,7.5-7.4,11.2-11.1c20.9-20.9,41.9-41.9,62.8-62.8c5.1-5.1,8.9-11,10.5-18.9c-13.2,3-24.7,0.9-34.1-8.3
	C174.7,306.9,172.3,295.4,175.5,281.7z M289.4,193.9c-1.8,1-5.6,2.3-8.4,4.8c-5.2,4.4-9.8,9.6-14.6,14.4
	c-22.6,22.6-45.2,45.2-67.8,67.8c-4.1,4.1-6.2,8.8-4.9,14.6c1.3,5.5,4.7,9.3,10.3,10.8c6,1.6,10.9-0.3,15.1-4.6
	c27.2-27.2,54.4-54.4,81.6-81.6c0.9-0.9,1.8-1.8,2.5-2.8c3.3-4.9,3.8-10,1.1-15.3C301.6,196.8,297.2,194.4,289.4,193.9z"/>
<path class="st0" d="M152.5,144.1c-1.8,2.2-3.4,5.4-6,7.3c-3,2.2-7,1.9-9.8-0.7c-6.5-6.1-12.9-12.3-18.8-18.9
	c-3.2-3.6-2.4-8.7,1-12.1c3.3-3.2,8.3-4.2,11.7-1.1c6.8,6.2,13.2,12.9,19.5,19.5C151.2,139.3,151.4,141.3,152.5,144.1z"/>
<path class="st0" d="M354.9,345.8c3.2,1.7,5.9,2.6,7.7,4.3c5.5,5.1,10.7,10.4,15.9,15.8c4.3,4.4,4.3,10.2,0.4,14
	c-3.9,3.8-9.6,3.6-14-0.7c-5.5-5.3-10.9-10.7-16.1-16.2c-2.9-3-3.9-7-1.6-10.5C349,349.9,352.2,348.2,354.9,345.8z"/>
<path class="st0" d="M322.3,390.9c0,4,0.2,8,0,11.9c-0.3,5.1-3.9,8.7-8.7,9c-4.8,0.3-9.6-2.8-9.8-7.8c-0.5-9-0.5-18.1,0-27.1
	c0.3-4.9,5.2-8,9.9-7.6c4.8,0.4,8.4,4.1,8.6,9.2C322.5,382.6,322.3,386.8,322.3,390.9z"/>
<path class="st0" d="M389.5,323.2c-4,0-8,0.2-11.9,0c-5.1-0.2-8.7-3.9-9.1-8.7c-0.4-4.9,3-9.7,8.2-10c8.7-0.5,17.5-0.5,26.2,0
	c5.2,0.3,8.5,5.1,8.1,10c-0.4,4.8-4,8.4-9.1,8.7C397.8,323.3,393.6,323.2,389.5,323.2z"/>
<path class="st0" d="M194.4,108.9c0,4.1,0.2,8.3,0,12.4c-0.3,5.2-3.9,8.7-8.7,8.9c-5.2,0.3-9.6-2.9-9.9-8.2
	c-0.4-8.7-0.4-17.5,0-26.2c0.3-5.1,4.5-8.1,9.5-8c4.9,0.1,8.7,3.5,9,8.6C194.6,100.6,194.4,104.8,194.4,108.9
	C194.4,108.9,194.4,108.9,194.4,108.9z"/>
<path class="st0" d="M108.1,195.3c-4,0-7.9,0.2-11.9,0c-5.4-0.3-9-3.9-9.2-9c-0.2-5.2,3-9.4,8.4-9.7c8.4-0.4,16.8-0.4,25.2-0.1
	c5.6,0.2,9,4.6,8.7,9.9c-0.2,5-3.9,8.6-9.3,8.9C116,195.5,112.1,195.3,108.1,195.3z"/>
<path class="st0" d="M395.1,179.3c0,5.3-4,9.4-9.3,9.4c-5.5,0.1-9.7-4.2-9.6-9.6c0.1-5.2,4.4-9.3,9.6-9.2
	C391,169.9,395.1,174,395.1,179.3z"/>
</svg>
